inDegrees=no
num_controls=7
num_derivatives=13
num_iterations=233
num_multipliers=7
num_parameters=0
num_slacks=7
num_states=26
objective=0.509400
objective_accelerations=0.041224
objective_balance=0.003575
objective_effort=0.029490
objective_height=0.322596
objective_ligament=0.112515
solver_duration=3632.873639
status=Solve_Succeeded
success=true
DataType=double
version=3
OpenSimVersion=4.5
endheader
time	/jointset/ground_pelvis/pelvis_tilt/value	/jointset/ground_pelvis/pelvis_tx/value	/jointset/ground_pelvis/pelvis_ty/value	/jointset/hip_l/hip_flexion_l/value	/jointset/hip_l/hip_adduction_l/value	/jointset/hip_l/hip_rotation_l/value	/jointset/back/lumbar_extension/value	/jointset/patellofemoral_l/patellar_flexion_l/value	/jointset/knee_l/knee_flexion_l/value	/jointset/knee_l/knee_adduction_l/value	/jointset/knee_l/knee_rotation_l/value	/jointset/ankle_l/ankle_angle_l/value	/jointset/subtalar_l/subtalar_angle_l/value	/jointset/ground_pelvis/pelvis_tilt/speed	/jointset/ground_pelvis/pelvis_tx/speed	/jointset/ground_pelvis/pelvis_ty/speed	/jointset/hip_l/hip_flexion_l/speed	/jointset/hip_l/hip_adduction_l/speed	/jointset/hip_l/hip_rotation_l/speed	/jointset/back/lumbar_extension/speed	/jointset/patellofemoral_l/patellar_flexion_l/speed	/jointset/knee_l/knee_flexion_l/speed	/jointset/knee_l/knee_adduction_l/speed	/jointset/knee_l/knee_rotation_l/speed	/jointset/ankle_l/ankle_angle_l/speed	/jointset/subtalar_l/subtalar_angle_l/speed	/forceset/tau_hip_flexion_l	/forceset/tau_hip_adduction_l	/forceset/tau_hip_rotation_l	/forceset/tau_knee_flexion_l	/forceset/tau_ankle_angle_l	/forceset/tau_subtalar_angle_l	/forceset/tau_lumbar_extension	lambda_cid13_p0	lambda_cid13_p1	lambda_cid13_p2	lambda_cid13_p3	lambda_cid13_p4	lambda_cid13_p5	lambda_cid14_p0	/jointset/ground_pelvis/pelvis_tilt/accel	/jointset/ground_pelvis/pelvis_tx/accel	/jointset/ground_pelvis/pelvis_ty/accel	/jointset/hip_l/hip_flexion_l/accel	/jointset/hip_l/hip_adduction_l/accel	/jointset/hip_l/hip_rotation_l/accel	/jointset/back/lumbar_extension/accel	/jointset/patellofemoral_l/patellar_flexion_l/accel	/jointset/knee_l/knee_flexion_l/accel	/jointset/knee_l/knee_adduction_l/accel	/jointset/knee_l/knee_rotation_l/accel	/jointset/ankle_l/ankle_angle_l/accel	/jointset/subtalar_l/subtalar_angle_l/accel	gamma_cid13_p0	gamma_cid13_p1	gamma_cid13_p2	gamma_cid13_p3	gamma_cid13_p4	gamma_cid13_p5	gamma_cid14_p0
0.5	-0.1126703464460971	-0.04988932714017114	0.8245265376570277	0.8877990868334762	-0.3122905231176787	-0.1312142933721565	-0.7831361731808151	0.8062246686516295	0.8062246686515949	-0.07632478559931431	-0.171107188069622	0.09223328174768124	0.01317317410890891	-0.2194036914234402	-0.1669733619880313	-0.3580393960770732	1.524135026413874	-0.1055989914296691	0.5614320128577375	-0.8676955926562899	1.563858575568742	1.563858575568854	-0.009643627436857741	0.01602883680810538	0.3309846323282414	-0.005521030949267947	-0.2842693046181968	0.02813802171232155	-0.007234242266375157	-0.2022493376483978	0.08830132748863025	0.0513536233553278	0.3321688969784401	-15.53527881771518	-20.90509974423236	4.388962931134283	-6.753276864956019	-700.3725421104604	-75.50738907905503	-14.1554663502563	0.3803121067750811	0.6480143723541721	-0.166227327182467	-1.328830982609375	0.4243134133851581	-0.1918262958256058	1.803377978304621	-0.9343060575388505	-0.9343060575388475	-0.1176806121059299	-0.05068261178261534	0.1059364330664685	0.4844643956780167	-1.995396153928257e-07	-4.219132645161957e-07	8.107133874036412e-07	3.98999221560745e-08	-2.015802786789647e-07	-7.089979102836293e-08	-1.703958099828283e-07
0.51	-0.1148453163717068	-0.05152660627197162	0.8209388942083919	0.9029705787435478	-0.313326103045584	-0.1256105822951817	-0.7917216061060262	0.8218120730397213	0.8218120730397313	-0.07642921837796655	-0.1709502610826628	0.09554656956005286	0.01314069250868535	-0.2155930743277454	-0.1604791909973246	-0.3593830706144957	1.509863116550929	-0.1015284734152386	0.5591633584229015	-0.8492454655548263	1.553210855836615	1.553210855836686	-0.01127815310703483	0.01531498232710955	0.3315243279320613	-0.001034495775337764	-0.2918274146972043	0.02888189694447943	-0.007255848030518628	-0.2048091414742451	0.08677801578620509	0.05168813915486538	0.3394915857336196	-16.34517781439527	-20.8804048800441	4.352851135860221	-6.35092105927342	-705.7545073871223	-75.385417542665	-13.56473491223168	0.3809993155223649	0.6506181074939369	-0.1025438064819397	-1.521431408046988	0.3966409477868612	-0.2665675816873751	1.887659100709668	-1.19168832391349	-1.191688323919784	-0.1916695721954677	-0.08780892133202051	0.005677315340457755	0.4218368892150708	-1.95379775670642e-07	-3.662396070139154e-07	8.0633023835802e-07	4.648764655764391e-08	-1.917707459765997e-07	-4.75950313533147e-08	-1.640728367940866e-07
0.52	-0.1169822675654472	-0.05309884376485206	0.8173409927564901	0.9179903394710084	-0.3143213338028808	-0.1200339942754303	-0.8001181719552939	0.83728066355192	0.8372806635519721	-0.07655106261886879	-0.1708016870515268	0.09886079256672299	0.01315129402239408	-0.211799945049826	-0.1539650342040217	-0.3600909967303121	1.493788789891582	-0.09752915730821646	0.5560074014130758	-0.8299221774676663	1.540095800389931	1.540095800389959	-0.01312591988608678	0.01435824564315576	0.3311716711879098	0.003095591837174043	-0.2993855247762132	0.02962577217664101	-0.007277453794687045	-0.2073689453000921	0.08525470408378162	0.05202265495440804	0.3468142744887971	-17.15509014630762	-20.8574264894642	4.318977386953503	-5.993686109848711	-711.1720698389817	-75.30357641938269	-12.97006805870764	0.376814543219967	0.6520115328734312	-0.03907764286126567	-1.689314341889962	0.4100730319034693	-0.3692868108235652	1.978010175443851	-1.427773200450548	-1.427773200450581	-0.1603288338809014	-0.09925905237420937	-0.07253403652776479	0.4131748833943483	-1.901514453982424e-07	-3.006394246835808e-07	8.02626899362778e-07	5.314213834548032e-08	-1.777222780135945e-07	-2.370676359414693e-08	-1.567534449103533e-07
0.53	-0.1190814996970357	-0.05460593944010377	0.8137392501827251	0.9328405080245931	-0.3152769826874859	-0.1144932134724992	-0.8083174007201908	0.8526057442720705	0.8526057442720529	-0.07669252793953281	-0.1706637610784257	0.1021669681794397	0.01320132261083427	-0.2080606154968308	-0.1474604127292354	-0.3601442275804417	1.475951031056125	-0.09362605899078592	0.5520009059918007	-0.8098059673711394	1.524497248915074	1.524497248915065	-0.01521653484399827	0.01317856497666252	0.3299031470919579	0.006830706580528211	-0.3065205181796221	0.03008668861822395	-0.007283383298587343	-0.2103394524896206	0.08394353216523763	0.05229121836772746	0.3537449726863544	-17.90797402809307	-20.81211058522445	4.277338239928925	-5.528065603880008	-716.6273701771103	-75.25895971208713	-12.37296360239417	0.3703517169960677	0.6487519998755809	0.02851369160087823	-1.875114632709555	0.3765383168453103	-0.4386473340639115	2.04606764782831	-1.68932974801626	-1.689329748021853	-0.2408638842491697	-0.134418567749449	-0.1780711617536553	0.3417164772806501	-1.782132009816201e-07	-2.392402521091625e-07	7.746711002812685e-07	5.353326152007601e-08	-1.5510187746467e-07	-3.637177593995309e-09	-1.462551260081181e-07
0.54	-0.1211437666219619	-0.05604817599158877	0.8101403671999967	0.9475034773941561	-0.3161943785718793	-0.1089969609090378	-0.8163119391399082	0.8677621527520711	0.8677621527519811	-0.07685638662128012	-0.1705390511107807	0.1054556466380721	0.01328630968820303	-0.2044069037175679	-0.1409932094506805	-0.359519078522986	1.456348953087226	-0.08987855726605912	0.5471017535191504	-0.7889841084317654	1.506361352359694	1.506361352359648	-0.01760459210202601	0.01171504455166673	0.3276722403710158	0.01008728962286988	-0.3136555115830327	0.03054760505980969	-0.007289312802509621	-0.2133099596791489	0.08263236024669508	0.05255978178105082	0.3606756708839093	-18.66275553114221	-20.7682898745572	4.238026017912145	-5.098879871595339	-722.1407588463405	-75.25450931145559	-11.77514922232894	0.3596909884734571	0.6445278936271395	0.09659833865579918	-2.042178168578622	0.3789537133627194	-0.5478182210986277	2.119139944013244	-1.935242216555254	-1.935242216555305	-0.2198172939041545	-0.1560270040747262	-0.2650105615258067	0.3174685431918542	-1.588512217671343e-07	-1.824890052221409e-07	7.198827921681438e-07	4.699470027151169e-08	-1.229976366079198e-07	1.220748390681925e-08	-1.322396963620084e-07
0.55	-0.123169853618115	-0.05742599096739744	0.8065509980618951	0.9619623313833013	-0.3170749013833099	-0.1035538262939893	-0.8240950462701485	0.882725675171579	0.8827256751715447	-0.07704498215322422	-0.1704300875208964	0.1087177689002501	0.01340185531299289	-0.2008111311559085	-0.1345816567055929	-0.3582524872530881	1.43517957982376	-0.08624592281453318	0.5414053037408892	-0.7675587166027434	1.486019157649176	1.486019157649128	-0.0201271714849487	0.01004791539109324	0.3246385199823333	0.01296437572243444	-0.3202317692400439	0.03089797993919155	-0.007271368110917739	-0.2161856885433212	0.08136460322019512	0.05265590129338681	0.36697219341869	-19.366622467972	-20.65530273504071	4.184043343749204	-4.668009853382764	-726.9595215017738	-75.1076187701881	-11.17840358356213	0.3594068926597961	0.6376970014517542	0.1570077005563894	-2.190677558134483	0.3523559525688453	-0.5986467392156631	2.166028954362781	-2.132279263250879	-2.132279263251038	-0.2703888783357109	-0.1763811453951151	-0.339614829869104	0.264153690503119	-1.408875594461323e-07	-1.334043768636941e-07	6.652979497083668e-07	4.163126667430593e-08	-9.631653335185488e-08	2.586005578809717e-08	-1.18907764047266e-07
0.5600000000000001	-0.125160005588121	-0.05874004480845484	0.8029773584723724	0.9762022195092315	-0.3179197103219203	-0.09817127385332854	-0.8316615414516952	0.8974760614109927	0.8974760614110119	-0.07725918560257025	-0.1703386602772862	0.1119461415480754	0.01354443680821134	-0.1972198984883472	-0.128240982500424	-0.3563731688072077	1.412555780444137	-0.08273578270215666	0.5349853186415978	-0.7456617186930776	1.463734116340627	1.463734116340577	-0.02272617558184736	0.00820777529666167	0.320922317500465	0.01549446370857302	-0.3268080268970572	0.03124835481857553	-0.007253423419344766	-0.2190614174074934	0.08009684619369643	0.0527520208057259	0.3732687159534685	-20.07514074678879	-20.54311332043428	4.132030220151028	-4.260482158201598	-731.8701558188282	-74.99928624052377	-10.58455710361097	0.3587830096538221	0.6303521856434315	0.2191437738523042	-2.333063391809998	0.3544548455328324	-0.6925252853046709	2.213461160142022	-2.323811536161549	-2.323811536161574	-0.235102236699351	-0.1906291908463497	-0.401506980162992	0.2480689205066617	-1.246018773973105e-07	-9.351969073953705e-08	6.109572660326067e-07	3.76779862587304e-08	-7.614319521661211e-08	3.688212012593122e-08	-1.063960285301642e-07
0.5700000000000001	-0.1271142328399108	-0.05999109413201032	0.7994255006587782	0.9902090251656452	-0.3187299022139261	-0.09285637243894103	-0.8390068854320403	0.9119945528756078	0.9119945528755992	-0.07749933431102109	-0.170266283370648	0.1151342758263584	0.01371083785343084	-0.193618861281953	-0.1219849882454716	-0.3539026362747298	1.388592982050355	-0.07932029685770442	0.5278913833004421	-0.7233503804994004	1.439697565271558	1.439697565271568	-0.02529674469717665	0.006250769602452587	0.316617930793686	0.01773971811305123	-0.3330202084407251	0.03154648745473267	-0.007211761079552465	-0.2217713804620869	0.07872829039881189	0.05272556187030203	0.3791365258580599	-20.79108452110669	-20.37485044075401	4.069320439143176	-3.810473857234716	-736.2998444437466	-74.77918130688799	-9.995606011829775	0.3617522911856658	0.6208142285935413	0.2753586920853236	-2.459760617262302	0.3323701769849196	-0.7334481062837164	2.248474680445628	-2.483548725201917	-2.483548725192997	-0.2670131968614567	-0.2006456520888743	-0.4578997915929267	0.2057934025922076	-1.085971380624527e-07	-5.658029648309951e-08	5.556992420013045e-07	3.370142803731251e-08	-5.749462397112458e-08	4.597447026578645e-08	-9.398149823799154e-08
0.58	-0.1290322520766249	-0.06118006527638184	0.7959012183103368	1.003969828327301	-0.3195064843028701	-0.08761553446751764	-0.8461274151241553	0.926264684462949	0.926264684462911	-0.07776498450020973	-0.1702139583996273	0.1182767671824421	0.01389829938312996	-0.1899782954734239	-0.1158253466636301	-0.3508580757766609	1.363355281492569	-0.07601382208991403	0.5201726300487813	-0.7006988610471223	1.414062140885594	1.414062140885664	-0.02782647172897613	0.004197388173016251	0.3117937330606039	0.01970656060448124	-0.3392323899843954	0.0318446200908915	-0.007170098739776167	-0.2244813435166802	0.07735973460392853	0.05269910293488071	0.385004335762649	-21.51312556226509	-20.20685591636628	4.008180139280835	-3.37580066515758	-740.8382007336078	-74.59439838569727	-9.413347040957577	0.3666887300807658	0.6110816510212713	0.3339493669705336	-2.588043824610918	0.3326526302004552	-0.817488867405642	2.281497411862171	-2.643586199540635	-2.643586199540635	-0.2269338199933929	-0.2099043378918047	-0.5054691854236134	0.1923865378970252	-9.295827761089676e-08	-2.34766311706691e-08	4.992465421581341e-07	2.969455453386739e-08	-4.083179565183002e-08	5.255370424083209e-08	-8.169356079688941e-08
0.59	-0.1309136400157238	-0.06230795476144545	0.7924101794258812	1.017472227793905	-0.3202504169860156	-0.08245485990361663	-0.8530198728054746	0.9402710169229962	0.9402710169229688	-0.07805536999829729	-0.1701824208881895	0.1213687029804651	0.01410427653777967	-0.1862862170523511	-0.1097714590985629	-0.347260322770811	1.336936028574236	-0.07278794012602566	0.5118763109612986	-0.6777543797678847	1.386985207304419	1.386985207304455	-0.03023202039618237	0.002108303134384684	0.306529860146439	0.0214531604883942	-0.3450674304380732	0.03200887528701813	-0.007104290926723708	-0.2270350358263541	0.07591665668637121	0.05263691964550703	0.3904457977965043	-22.2304511798891	-20.02491203359013	3.945660663143916	-2.923892408649237	-744.8956699336962	-74.38393319354714	-8.839361569066961	0.3724162761875494	0.5997114662763112	0.3860888050004008	-2.697167016296186	0.3152094318886723	-0.8486584972183959	2.30666780326856	-2.77260361143358	-2.772603611438716	-0.2445682136348857	-0.2085892368995809	-0.5463820135790876	0.160386524429651	-7.776234727099809e-08	-1.102016323018375e-08	4.357726460273803e-07	2.302120383626189e-08	-2.74852897721494e-08	5.30709959144972e-08	-7.066750470765425e-08
